<svg width="60" height="6" viewBox="0 0 60 6" fill="none" xmlns="http://www.w3.org/2000/svg">
<path fill-rule="evenodd" clip-rule="evenodd" d="M5.01618 3.6618C4.88808 3.7917 4.82988 3.9789 4.85988 4.1625L5.05338 5.3373C5.11368 5.703 4.83468 6 4.51817 6C4.43477 6 4.34867 5.9793 4.26527 5.9337L3.25275 5.379C3.17355 5.3358 3.08685 5.3142 2.99985 5.3142C2.91315 5.3142 2.82645 5.3358 2.74725 5.379L1.73473 5.9337C1.65133 5.9793 1.56523 6 1.48183 6C1.16532 6 0.886319 5.703 0.94662 5.3373L1.14012 4.1625C1.17012 3.9789 1.11192 3.7917 0.98382 3.6618L0.164507 2.8299C-0.157697 2.5026 0.0202063 1.9323 0.465413 1.8648L1.59763 1.6935C1.77463 1.6668 1.92763 1.551 2.00654 1.3839L2.51294 0.315298C2.61254 0.104998 2.80635 0 2.99985 0C3.19365 0 3.38746 0.104998 3.48706 0.315298L3.99347 1.3839C4.07237 1.551 4.22537 1.6668 4.40237 1.6935L5.53459 1.8648C5.97979 1.9323 6.1577 2.5026 5.83549 2.8299L5.01618 3.6618Z" fill="black"/>
<path fill-rule="evenodd" clip-rule="evenodd" d="M19.0162 3.6618C18.8881 3.7917 18.8299 3.9789 18.8599 4.1625L19.0534 5.3373C19.1137 5.703 18.8347 6 18.5182 6C18.4348 6 18.3487 5.9793 18.2653 5.9337L17.2528 5.379C17.1736 5.3358 17.0869 5.3142 16.9999 5.3142C16.9131 5.3142 16.8264 5.3358 16.7472 5.379L15.7347 5.9337C15.6513 5.9793 15.5652 6 15.4818 6C15.1653 6 14.8863 5.703 14.9466 5.3373L15.1401 4.1625C15.1701 3.9789 15.1119 3.7917 14.9838 3.6618L14.1645 2.8299C13.8423 2.5026 14.0202 1.9323 14.4654 1.8648L15.5976 1.6935C15.7746 1.6668 15.9276 1.551 16.0065 1.3839L16.5129 0.315298C16.6125 0.104998 16.8063 0 16.9999 0C17.1937 0 17.3875 0.104998 17.4871 0.315298L17.9935 1.3839C18.0724 1.551 18.2254 1.6668 18.4024 1.6935L19.5346 1.8648C19.9798 1.9323 20.1577 2.5026 19.8355 2.8299L19.0162 3.6618Z" fill="black"/>
<path fill-rule="evenodd" clip-rule="evenodd" d="M33.0162 3.6618C32.8881 3.7917 32.8299 3.9789 32.8599 4.1625L33.0534 5.3373C33.1137 5.703 32.8347 6 32.5182 6C32.4348 6 32.3487 5.9793 32.2653 5.9337L31.2528 5.379C31.1736 5.3358 31.0869 5.3142 30.9999 5.3142C30.9131 5.3142 30.8264 5.3358 30.7472 5.379L29.7347 5.9337C29.6513 5.9793 29.5652 6 29.4818 6C29.1653 6 28.8863 5.703 28.9466 5.3373L29.1401 4.1625C29.1701 3.9789 29.1119 3.7917 28.9838 3.6618L28.1645 2.8299C27.8423 2.5026 28.0202 1.9323 28.4654 1.8648L29.5976 1.6935C29.7746 1.6668 29.9276 1.551 30.0065 1.3839L30.5129 0.315298C30.6125 0.104998 30.8063 0 30.9999 0C31.1937 0 31.3875 0.104998 31.4871 0.315298L31.9935 1.3839C32.0724 1.551 32.2254 1.6668 32.4024 1.6935L33.5346 1.8648C33.9798 1.9323 34.1577 2.5026 33.8355 2.8299L33.0162 3.6618Z" fill="black"/>
<path fill-rule="evenodd" clip-rule="evenodd" d="M47.0162 3.6618C46.8881 3.7917 46.8299 3.9789 46.8599 4.1625L47.0534 5.3373C47.1137 5.703 46.8347 6 46.5182 6C46.4348 6 46.3487 5.9793 46.2653 5.9337L45.2528 5.379C45.1736 5.3358 45.0869 5.3142 44.9999 5.3142C44.9131 5.3142 44.8264 5.3358 44.7472 5.379L43.7347 5.9337C43.6513 5.9793 43.5652 6 43.4818 6C43.1653 6 42.8863 5.703 42.9466 5.3373L43.1401 4.1625C43.1701 3.9789 43.1119 3.7917 42.9838 3.6618L42.1645 2.8299C41.8423 2.5026 42.0202 1.9323 42.4654 1.8648L43.5976 1.6935C43.7746 1.6668 43.9276 1.551 44.0065 1.3839L44.5129 0.315298C44.6125 0.104998 44.8063 0 44.9999 0C45.1937 0 45.3875 0.104998 45.4871 0.315298L45.9935 1.3839C46.0724 1.551 46.2254 1.6668 46.4024 1.6935L47.5346 1.8648C47.9798 1.9323 48.1577 2.5026 47.8355 2.8299L47.0162 3.6618Z" fill="black"/>
<path fill-rule="evenodd" clip-rule="evenodd" d="M59.0162 3.6618C58.8881 3.7917 58.8299 3.9789 58.8599 4.1625L59.0534 5.3373C59.1137 5.703 58.8347 6 58.5182 6C58.4348 6 58.3487 5.9793 58.2653 5.9337L57.2528 5.379C57.1736 5.3358 57.0869 5.3142 56.9999 5.3142C56.9131 5.3142 56.8264 5.3358 56.7472 5.379L55.7347 5.9337C55.6513 5.9793 55.5652 6 55.4818 6C55.1653 6 54.8863 5.703 54.9466 5.3373L55.1401 4.1625C55.1701 3.9789 55.1119 3.7917 54.9838 3.6618L54.1645 2.8299C53.8423 2.5026 54.0202 1.9323 54.4654 1.8648L55.5976 1.6935C55.7746 1.6668 55.9276 1.551 56.0065 1.3839L56.5129 0.315298C56.6125 0.104998 56.8063 0 56.9999 0C57.1937 0 57.3875 0.104998 57.4871 0.315298L57.9935 1.3839C58.0724 1.551 58.2254 1.6668 58.4024 1.6935L59.5346 1.8648C59.9798 1.9323 60.1577 2.5026 59.8355 2.8299L59.0162 3.6618Z" fill="black"/>
</svg>
