<svg width="50" height="16" viewBox="0 0 50 16" fill="none" xmlns="http://www.w3.org/2000/svg">
<mask id="mask0_294_64" style="mask-type:luminance" maskUnits="userSpaceOnUse" x="0" y="0" width="20" height="16">
<path d="M18.5714 0H1.42857C0.639593 0 0 0.716344 0 1.6V14.4C0 15.2837 0.639593 16 1.42857 16H18.5714C19.3604 16 20 15.2837 20 14.4V1.6C20 0.716344 19.3604 0 18.5714 0Z" fill="white"/>
</mask>
<g mask="url(#mask0_294_64)">
<path d="M18.5714 0H1.42857C0.639593 0 0 0.716344 0 1.6V14.4C0 15.2837 0.639593 16 1.42857 16H18.5714C19.3604 16 20 15.2837 20 14.4V1.6C20 0.716344 19.3604 0 18.5714 0Z" fill="white"/>
<mask id="mask1_294_64" style="mask-type:alpha" maskUnits="userSpaceOnUse" x="0" y="0" width="20" height="16">
<path d="M18.5714 0H1.42857C0.639593 0 0 0.716344 0 1.6V14.4C0 15.2837 0.639593 16 1.42857 16H18.5714C19.3604 16 20 15.2837 20 14.4V1.6C20 0.716344 19.3604 0 18.5714 0Z" fill="white"/>
</mask>
<g mask="url(#mask1_294_64)">
<path fill-rule="evenodd" clip-rule="evenodd" d="M20 0H0V1.06666H20V0ZM20 2.13334H0V3.2H20V2.13334ZM0 4.26666H20V5.33334H0V4.26666ZM20 6.4H0V7.46666H20V6.4ZM0 8.53336H20V9.6H0V8.53336ZM20 10.6666H0V11.7334H20V10.6666ZM0 12.8H20V13.8666H0V12.8ZM20 14.9334H0V16H20V14.9334Z" fill="#D02F44"/>
<path d="M8.57143 0H0V7.46666H8.57143V0Z" fill="#46467F"/>
<g filter="url(#filter0_d_294_64)">
<path fill-rule="evenodd" clip-rule="evenodd" d="M1.90356 1.59973C1.90356 1.89429 1.69036 2.13307 1.42736 2.13307C1.16437 2.13307 0.951172 1.89429 0.951172 1.59973C0.951172 1.30519 1.16437 1.06641 1.42736 1.06641C1.69036 1.06641 1.90356 1.30519 1.90356 1.59973ZM3.80831 1.59973C3.80831 1.89429 3.59512 2.13307 3.33213 2.13307C3.06914 2.13307 2.85594 1.89429 2.85594 1.59973C2.85594 1.30519 3.06914 1.06641 3.33213 1.06641C3.59512 1.06641 3.80831 1.30519 3.80831 1.59973ZM5.23689 2.13307C5.49988 2.13307 5.71308 1.89429 5.71308 1.59973C5.71308 1.30519 5.49988 1.06641 5.23689 1.06641C4.97389 1.06641 4.7607 1.30519 4.7607 1.59973C4.7607 1.89429 4.97389 2.13307 5.23689 2.13307ZM7.61781 1.59973C7.61781 1.89429 7.40466 2.13307 7.14165 2.13307C6.87866 2.13307 6.66546 1.89429 6.66546 1.59973C6.66546 1.30519 6.87866 1.06641 7.14165 1.06641C7.40466 1.06641 7.61781 1.30519 7.61781 1.59973ZM2.37974 3.19973C2.64274 3.19973 2.85594 2.96096 2.85594 2.66641C2.85594 2.37185 2.64274 2.13307 2.37974 2.13307C2.11675 2.13307 1.90356 2.37185 1.90356 2.66641C1.90356 2.96096 2.11675 3.19973 2.37974 3.19973ZM4.7607 2.66641C4.7607 2.96096 4.5475 3.19973 4.28451 3.19973C4.02151 3.19973 3.80831 2.96096 3.80831 2.66641C3.80831 2.37185 4.02151 2.13307 4.28451 2.13307C4.5475 2.13307 4.7607 2.37185 4.7607 2.66641ZM6.18927 3.19973C6.45226 3.19973 6.66546 2.96096 6.66546 2.66641C6.66546 2.37185 6.45226 2.13307 6.18927 2.13307C5.92628 2.13307 5.71308 2.37185 5.71308 2.66641C5.71308 2.96096 5.92628 3.19973 6.18927 3.19973ZM7.61781 3.73307C7.61781 4.02762 7.40466 4.26641 7.14165 4.26641C6.87866 4.26641 6.66546 4.02762 6.66546 3.73307C6.66546 3.43852 6.87866 3.19973 7.14165 3.19973C7.40466 3.19973 7.61781 3.43852 7.61781 3.73307ZM5.23689 4.26641C5.49988 4.26641 5.71308 4.02762 5.71308 3.73307C5.71308 3.43852 5.49988 3.19973 5.23689 3.19973C4.97389 3.19973 4.7607 3.43852 4.7607 3.73307C4.7607 4.02762 4.97389 4.26641 5.23689 4.26641ZM3.80831 3.73307C3.80831 4.02762 3.59512 4.26641 3.33213 4.26641C3.06914 4.26641 2.85594 4.02762 2.85594 3.73307C2.85594 3.43852 3.06914 3.19973 3.33213 3.19973C3.59512 3.19973 3.80831 3.43852 3.80831 3.73307ZM1.42736 4.26641C1.69036 4.26641 1.90356 4.02762 1.90356 3.73307C1.90356 3.43852 1.69036 3.19973 1.42736 3.19973C1.16437 3.19973 0.951172 3.43852 0.951172 3.73307C0.951172 4.02762 1.16437 4.26641 1.42736 4.26641ZM2.85594 4.79973C2.85594 5.09429 2.64274 5.33307 2.37974 5.33307C2.11675 5.33307 1.90356 5.09429 1.90356 4.79973C1.90356 4.50518 2.11675 4.26641 2.37974 4.26641C2.64274 4.26641 2.85594 4.50518 2.85594 4.79973ZM4.28451 5.33307C4.5475 5.33307 4.7607 5.09429 4.7607 4.79973C4.7607 4.50518 4.5475 4.26641 4.28451 4.26641C4.02151 4.26641 3.80831 4.50518 3.80831 4.79973C3.80831 5.09429 4.02151 5.33307 4.28451 5.33307ZM6.66546 4.79973C6.66546 5.09429 6.45226 5.33307 6.18927 5.33307C5.92628 5.33307 5.71308 5.09429 5.71308 4.79973C5.71308 4.50518 5.92628 4.26641 6.18927 4.26641C6.45226 4.26641 6.66546 4.50518 6.66546 4.79973ZM7.14165 6.39974C7.40466 6.39974 7.61781 6.16096 7.61781 5.86641C7.61781 5.57185 7.40466 5.33307 7.14165 5.33307C6.87866 5.33307 6.66546 5.57185 6.66546 5.86641C6.66546 6.16096 6.87866 6.39974 7.14165 6.39974ZM5.71308 5.86641C5.71308 6.16096 5.49988 6.39974 5.23689 6.39974C4.97389 6.39974 4.7607 6.16096 4.7607 5.86641C4.7607 5.57185 4.97389 5.33307 5.23689 5.33307C5.49988 5.33307 5.71308 5.57185 5.71308 5.86641ZM3.33213 6.39974C3.59512 6.39974 3.80831 6.16096 3.80831 5.86641C3.80831 5.57185 3.59512 5.33307 3.33213 5.33307C3.06914 5.33307 2.85594 5.57185 2.85594 5.86641C2.85594 6.16096 3.06914 6.39974 3.33213 6.39974ZM1.90356 5.86641C1.90356 6.16096 1.69036 6.39974 1.42736 6.39974C1.16437 6.39974 0.951172 6.16096 0.951172 5.86641C0.951172 5.57185 1.16437 5.33307 1.42736 5.33307C1.69036 5.33307 1.90356 5.57185 1.90356 5.86641Z" fill="url(#paint0_linear_294_64)"/>
</g>
</g>
</g>
<mask id="mask2_294_64" style="mask-type:luminance" maskUnits="userSpaceOnUse" x="30" y="0" width="20" height="16">
<path d="M48.5714 0H31.4286C30.6396 0 30 0.716344 30 1.6V14.4C30 15.2837 30.6396 16 31.4286 16H48.5714C49.3604 16 50 15.2837 50 14.4V1.6C50 0.716344 49.3604 0 48.5714 0Z" fill="white"/>
</mask>
<g mask="url(#mask2_294_64)">
<path d="M48.5706 0.200195H31.4277C30.7374 0.200195 30.1777 0.826997 30.1777 1.6002V14.4002C30.1777 15.1734 30.7374 15.8002 31.4277 15.8002H48.5706C49.2609 15.8002 49.8206 15.1734 49.8206 14.4002V1.6002C49.8206 0.826997 49.2609 0.200195 48.5706 0.200195Z" fill="white" stroke="#F5F5F5" stroke-width="14.2857"/>
<mask id="mask3_294_64" style="mask-type:alpha" maskUnits="userSpaceOnUse" x="23" y="-7" width="34" height="30">
<path d="M48.5706 0.200195H31.4277C30.7374 0.200195 30.1777 0.826997 30.1777 1.6002V14.4002C30.1777 15.1734 30.7374 15.8002 31.4277 15.8002H48.5706C49.2609 15.8002 49.8206 15.1734 49.8206 14.4002V1.6002C49.8206 0.826997 49.2609 0.200195 48.5706 0.200195Z" fill="white" stroke="white" stroke-width="14.2857"/>
</mask>
<g mask="url(#mask3_294_64)">
<path d="M49.9987 0H43.332V16H49.9987V0Z" fill="#F44653"/>
<path fill-rule="evenodd" clip-rule="evenodd" d="M30 16H36.6667V0H30V16Z" fill="#1035BB"/>
</g>
</g>
<defs>
<filter id="filter0_d_294_64" x="0.951172" y="1.06641" width="6.66602" height="33.9044" filterUnits="userSpaceOnUse" color-interpolation-filters="sRGB">
<feFlood flood-opacity="0" result="BackgroundImageFix"/>
<feColorMatrix in="SourceAlpha" type="matrix" values="0 0 0 0 0 0 0 0 0 0 0 0 0 0 0 0 0 0 127 0" result="hardAlpha"/>
<feOffset dy="28.5714"/>
<feColorMatrix type="matrix" values="0 0 0 0 0 0 0 0 0 0 0 0 0 0 0 0 0 0 0.06 0"/>
<feBlend mode="normal" in2="BackgroundImageFix" result="effect1_dropShadow_294_64"/>
<feBlend mode="normal" in="SourceGraphic" in2="effect1_dropShadow_294_64" result="shape"/>
</filter>
<linearGradient id="paint0_linear_294_64" x1="0.951172" y1="1.06641" x2="0.951172" y2="6.39973" gradientUnits="userSpaceOnUse">
<stop stop-color="white"/>
<stop offset="1" stop-color="#F0F0F0"/>
</linearGradient>
</defs>
</svg>
