<svg width="80" height="16" viewBox="0 0 80 16" fill="none" xmlns="http://www.w3.org/2000/svg">
<mask id="mask0_294_203" style="mask-type:luminance" maskUnits="userSpaceOnUse" x="0" y="0" width="20" height="16">
<path d="M18.5714 0H1.42857C0.639593 0 0 0.716344 0 1.6V14.4C0 15.2837 0.639593 16 1.42857 16H18.5714C19.3604 16 20 15.2837 20 14.4V1.6C20 0.716344 19.3604 0 18.5714 0Z" fill="white"/>
</mask>
<g mask="url(#mask0_294_203)">
<path d="M18.5714 0H1.42857C0.639593 0 0 0.716344 0 1.6V14.4C0 15.2837 0.639593 16 1.42857 16H18.5714C19.3604 16 20 15.2837 20 14.4V1.6C20 0.716344 19.3604 0 18.5714 0Z" fill="white"/>
<mask id="mask1_294_203" style="mask-type:alpha" maskUnits="userSpaceOnUse" x="0" y="0" width="20" height="16">
<path d="M18.5714 0H1.42857C0.639593 0 0 0.716344 0 1.6V14.4C0 15.2837 0.639593 16 1.42857 16H18.5714C19.3604 16 20 15.2837 20 14.4V1.6C20 0.716344 19.3604 0 18.5714 0Z" fill="white"/>
</mask>
<g mask="url(#mask1_294_203)">
<path d="M20 0H0V16H20V0Z" fill="#F1361D"/>
<path fill-rule="evenodd" clip-rule="evenodd" d="M7.08008 2.21507L7.76911 2.24801L7.93411 2.99794L8.20703 2.26446L8.89703 2.28331L8.37668 1.79706L8.63811 1.05878L8.04361 1.49174L7.51518 1.0166L7.66811 1.77044L7.08008 2.21507ZM8.39375 4.35059L9.05518 4.56926L9.05332 5.34163L9.47653 4.7039L10.142 4.90918L9.74218 4.29636L10.1553 3.65086L9.48496 3.90986L9.07482 3.30563L9.06039 4.07851L8.39375 4.35059ZM9.50775 7.53614L8.95596 7.9994L9.15953 7.23822L8.61489 6.76334L9.29253 6.75615L9.50775 5.9994L9.72296 6.75615L10.4006 6.76334L9.85596 7.23822L10.0596 7.9994L9.50775 7.53614ZM7.22996 9.71426L7.89653 9.51626L8.25325 10.1773L8.31904 9.3861L8.98289 9.17434L8.35696 8.88339L8.41053 8.09138L7.95789 8.70274L7.32718 8.42514L7.67332 9.09394L7.22996 9.71426Z" fill="#FFDC42"/>
<path fill-rule="evenodd" clip-rule="evenodd" d="M4.76223 6.58081L3.08284 7.92166L3.70248 5.71846L2.04492 4.34396L4.10727 4.32316L4.76223 2.13281L5.41719 4.32316L7.47952 4.34396L5.82198 5.71846L6.44162 7.92166L4.76223 6.58081Z" fill="#FFDC42"/>
</g>
</g>
<mask id="mask2_294_203" style="mask-type:luminance" maskUnits="userSpaceOnUse" x="30" y="0" width="20" height="16">
<path d="M48.5714 0H31.4286C30.6396 0 30 0.716344 30 1.6V14.4C30 15.2837 30.6396 16 31.4286 16H48.5714C49.3604 16 50 15.2837 50 14.4V1.6C50 0.716344 49.3604 0 48.5714 0Z" fill="white"/>
</mask>
<g mask="url(#mask2_294_203)">
<path d="M48.5706 0.200195H31.4277C30.7374 0.200195 30.1777 0.826997 30.1777 1.6002V14.4002C30.1777 15.1734 30.7374 15.8002 31.4277 15.8002H48.5706C49.2609 15.8002 49.8206 15.1734 49.8206 14.4002V1.6002C49.8206 0.826997 49.2609 0.200195 48.5706 0.200195Z" fill="white" stroke="#F5F5F5" stroke-width="14.2857"/>
<mask id="mask3_294_203" style="mask-type:alpha" maskUnits="userSpaceOnUse" x="23" y="-7" width="34" height="30">
<path d="M48.5706 0.200195H31.4277C30.7374 0.200195 30.1777 0.826997 30.1777 1.6002V14.4002C30.1777 15.1734 30.7374 15.8002 31.4277 15.8002H48.5706C49.2609 15.8002 49.8206 15.1734 49.8206 14.4002V1.6002C49.8206 0.826997 49.2609 0.200195 48.5706 0.200195Z" fill="white" stroke="white" stroke-width="14.2857"/>
</mask>
<g mask="url(#mask3_294_203)">
<path fill-rule="evenodd" clip-rule="evenodd" d="M30 16.0001H50V7.4668H30V16.0001Z" fill="#EB2A50"/>
</g>
</g>
<mask id="mask4_294_203" style="mask-type:luminance" maskUnits="userSpaceOnUse" x="60" y="0" width="20" height="16">
<path d="M78.5714 0H61.4286C60.6396 0 60 0.716344 60 1.6V14.4C60 15.2837 60.6396 16 61.4286 16H78.5714C79.3604 16 80 15.2837 80 14.4V1.6C80 0.716344 79.3604 0 78.5714 0Z" fill="white"/>
</mask>
<g mask="url(#mask4_294_203)">
<path d="M78.5714 0H61.4286C60.6396 0 60 0.716344 60 1.6V14.4C60 15.2837 60.6396 16 61.4286 16H78.5714C79.3604 16 80 15.2837 80 14.4V1.6C80 0.716344 79.3604 0 78.5714 0Z" fill="white"/>
<mask id="mask5_294_203" style="mask-type:alpha" maskUnits="userSpaceOnUse" x="60" y="0" width="20" height="16">
<path d="M78.5714 0H61.4286C60.6396 0 60 0.716344 60 1.6V14.4C60 15.2837 60.6396 16 61.4286 16H78.5714C79.3604 16 80 15.2837 80 14.4V1.6C80 0.716344 79.3604 0 78.5714 0Z" fill="white"/>
</mask>
<g mask="url(#mask5_294_203)">
<path fill-rule="evenodd" clip-rule="evenodd" d="M80 0H60V1.06666H80V0ZM80 2.13334H60V3.2H80V2.13334ZM60 4.26666H80V5.33334H60V4.26666ZM80 6.4H60V7.46666H80V6.4ZM60 8.53336H80V9.6H60V8.53336ZM80 10.6666H60V11.7334H80V10.6666ZM60 12.8H80V13.8666H60V12.8ZM80 14.9334H60V16H80V14.9334Z" fill="#D02F44"/>
<path d="M68.5714 0H60V7.46666H68.5714V0Z" fill="#46467F"/>
<g filter="url(#filter0_d_294_203)">
<path fill-rule="evenodd" clip-rule="evenodd" d="M61.9036 1.59973C61.9036 1.89429 61.6904 2.13307 61.4274 2.13307C61.1644 2.13307 60.9512 1.89429 60.9512 1.59973C60.9512 1.30519 61.1644 1.06641 61.4274 1.06641C61.6904 1.06641 61.9036 1.30519 61.9036 1.59973ZM63.8083 1.59973C63.8083 1.89429 63.5951 2.13307 63.3321 2.13307C63.0691 2.13307 62.8559 1.89429 62.8559 1.59973C62.8559 1.30519 63.0691 1.06641 63.3321 1.06641C63.5951 1.06641 63.8083 1.30519 63.8083 1.59973ZM65.2369 2.13307C65.4999 2.13307 65.7131 1.89429 65.7131 1.59973C65.7131 1.30519 65.4999 1.06641 65.2369 1.06641C64.9739 1.06641 64.7607 1.30519 64.7607 1.59973C64.7607 1.89429 64.9739 2.13307 65.2369 2.13307ZM67.6178 1.59973C67.6178 1.89429 67.4047 2.13307 67.1417 2.13307C66.8787 2.13307 66.6655 1.89429 66.6655 1.59973C66.6655 1.30519 66.8787 1.06641 67.1417 1.06641C67.4047 1.06641 67.6178 1.30519 67.6178 1.59973ZM62.3797 3.19973C62.6427 3.19973 62.8559 2.96096 62.8559 2.66641C62.8559 2.37185 62.6427 2.13307 62.3797 2.13307C62.1168 2.13307 61.9036 2.37185 61.9036 2.66641C61.9036 2.96096 62.1168 3.19973 62.3797 3.19973ZM64.7607 2.66641C64.7607 2.96096 64.5475 3.19973 64.2845 3.19973C64.0215 3.19973 63.8083 2.96096 63.8083 2.66641C63.8083 2.37185 64.0215 2.13307 64.2845 2.13307C64.5475 2.13307 64.7607 2.37185 64.7607 2.66641ZM66.1893 3.19973C66.4523 3.19973 66.6655 2.96096 66.6655 2.66641C66.6655 2.37185 66.4523 2.13307 66.1893 2.13307C65.9263 2.13307 65.7131 2.37185 65.7131 2.66641C65.7131 2.96096 65.9263 3.19973 66.1893 3.19973ZM67.6178 3.73307C67.6178 4.02762 67.4047 4.26641 67.1417 4.26641C66.8787 4.26641 66.6655 4.02762 66.6655 3.73307C66.6655 3.43852 66.8787 3.19973 67.1417 3.19973C67.4047 3.19973 67.6178 3.43852 67.6178 3.73307ZM65.2369 4.26641C65.4999 4.26641 65.7131 4.02762 65.7131 3.73307C65.7131 3.43852 65.4999 3.19973 65.2369 3.19973C64.9739 3.19973 64.7607 3.43852 64.7607 3.73307C64.7607 4.02762 64.9739 4.26641 65.2369 4.26641ZM63.8083 3.73307C63.8083 4.02762 63.5951 4.26641 63.3321 4.26641C63.0691 4.26641 62.8559 4.02762 62.8559 3.73307C62.8559 3.43852 63.0691 3.19973 63.3321 3.19973C63.5951 3.19973 63.8083 3.43852 63.8083 3.73307ZM61.4274 4.26641C61.6904 4.26641 61.9036 4.02762 61.9036 3.73307C61.9036 3.43852 61.6904 3.19973 61.4274 3.19973C61.1644 3.19973 60.9512 3.43852 60.9512 3.73307C60.9512 4.02762 61.1644 4.26641 61.4274 4.26641ZM62.8559 4.79973C62.8559 5.09429 62.6427 5.33307 62.3797 5.33307C62.1168 5.33307 61.9036 5.09429 61.9036 4.79973C61.9036 4.50518 62.1168 4.26641 62.3797 4.26641C62.6427 4.26641 62.8559 4.50518 62.8559 4.79973ZM64.2845 5.33307C64.5475 5.33307 64.7607 5.09429 64.7607 4.79973C64.7607 4.50518 64.5475 4.26641 64.2845 4.26641C64.0215 4.26641 63.8083 4.50518 63.8083 4.79973C63.8083 5.09429 64.0215 5.33307 64.2845 5.33307ZM66.6655 4.79973C66.6655 5.09429 66.4523 5.33307 66.1893 5.33307C65.9263 5.33307 65.7131 5.09429 65.7131 4.79973C65.7131 4.50518 65.9263 4.26641 66.1893 4.26641C66.4523 4.26641 66.6655 4.50518 66.6655 4.79973ZM67.1417 6.39974C67.4047 6.39974 67.6178 6.16096 67.6178 5.86641C67.6178 5.57185 67.4047 5.33307 67.1417 5.33307C66.8787 5.33307 66.6655 5.57185 66.6655 5.86641C66.6655 6.16096 66.8787 6.39974 67.1417 6.39974ZM65.7131 5.86641C65.7131 6.16096 65.4999 6.39974 65.2369 6.39974C64.9739 6.39974 64.7607 6.16096 64.7607 5.86641C64.7607 5.57185 64.9739 5.33307 65.2369 5.33307C65.4999 5.33307 65.7131 5.57185 65.7131 5.86641ZM63.3321 6.39974C63.5951 6.39974 63.8083 6.16096 63.8083 5.86641C63.8083 5.57185 63.5951 5.33307 63.3321 5.33307C63.0691 5.33307 62.8559 5.57185 62.8559 5.86641C62.8559 6.16096 63.0691 6.39974 63.3321 6.39974ZM61.9036 5.86641C61.9036 6.16096 61.6904 6.39974 61.4274 6.39974C61.1644 6.39974 60.9512 6.16096 60.9512 5.86641C60.9512 5.57185 61.1644 5.33307 61.4274 5.33307C61.6904 5.33307 61.9036 5.57185 61.9036 5.86641Z" fill="url(#paint0_linear_294_203)"/>
</g>
</g>
</g>
<defs>
<filter id="filter0_d_294_203" x="60.9512" y="1.06641" width="6.66602" height="33.9044" filterUnits="userSpaceOnUse" color-interpolation-filters="sRGB">
<feFlood flood-opacity="0" result="BackgroundImageFix"/>
<feColorMatrix in="SourceAlpha" type="matrix" values="0 0 0 0 0 0 0 0 0 0 0 0 0 0 0 0 0 0 127 0" result="hardAlpha"/>
<feOffset dy="28.5714"/>
<feColorMatrix type="matrix" values="0 0 0 0 0 0 0 0 0 0 0 0 0 0 0 0 0 0 0.06 0"/>
<feBlend mode="normal" in2="BackgroundImageFix" result="effect1_dropShadow_294_203"/>
<feBlend mode="normal" in="SourceGraphic" in2="effect1_dropShadow_294_203" result="shape"/>
</filter>
<linearGradient id="paint0_linear_294_203" x1="60.9512" y1="1.06641" x2="60.9512" y2="6.39973" gradientUnits="userSpaceOnUse">
<stop stop-color="white"/>
<stop offset="1" stop-color="#F0F0F0"/>
</linearGradient>
</defs>
</svg>
