<svg width="80" height="16" viewBox="0 0 80 16" fill="none" xmlns="http://www.w3.org/2000/svg">
<mask id="mask0_294_103" style="mask-type:luminance" maskUnits="userSpaceOnUse" x="0" y="0" width="20" height="16">
<path d="M18.5714 0H1.42857C0.639593 0 0 0.716344 0 1.6V14.4C0 15.2837 0.639593 16 1.42857 16H18.5714C19.3604 16 20 15.2837 20 14.4V1.6C20 0.716344 19.3604 0 18.5714 0Z" fill="white"/>
</mask>
<g mask="url(#mask0_294_103)">
<path d="M18.5706 0.200195H1.42773C0.737378 0.200195 0.177734 0.826997 0.177734 1.6002V14.4002C0.177734 15.1734 0.737378 15.8002 1.42773 15.8002H18.5706C19.2609 15.8002 19.8206 15.1734 19.8206 14.4002V1.6002C19.8206 0.826997 19.2609 0.200195 18.5706 0.200195Z" fill="white" stroke="#F5F5F5" stroke-width="14.2857"/>
<mask id="mask1_294_103" style="mask-type:alpha" maskUnits="userSpaceOnUse" x="-7" y="-7" width="34" height="30">
<path d="M18.5706 0.200195H1.42773C0.737378 0.200195 0.177734 0.826997 0.177734 1.6002V14.4002C0.177734 15.1734 0.737378 15.8002 1.42773 15.8002H18.5706C19.2609 15.8002 19.8206 15.1734 19.8206 14.4002V1.6002C19.8206 0.826997 19.2609 0.200195 18.5706 0.200195Z" fill="white" stroke="white" stroke-width="14.2857"/>
</mask>
<g mask="url(#mask1_294_103)">
<path fill-rule="evenodd" clip-rule="evenodd" d="M10.0006 12.8002C12.3675 12.8002 14.2863 10.6512 14.2863 8.0002C14.2863 5.34923 12.3675 3.2002 10.0006 3.2002C7.63363 3.2002 5.71484 5.34923 5.71484 8.0002C5.71484 10.6512 7.63363 12.8002 10.0006 12.8002Z" fill="url(#paint0_linear_294_103)"/>
</g>
</g>
<mask id="mask2_294_103" style="mask-type:luminance" maskUnits="userSpaceOnUse" x="30" y="0" width="20" height="16">
<path d="M48.5714 0H31.4286C30.6396 0 30 0.716344 30 1.6V14.4C30 15.2837 30.6396 16 31.4286 16H48.5714C49.3604 16 50 15.2837 50 14.4V1.6C50 0.716344 49.3604 0 48.5714 0Z" fill="white"/>
</mask>
<g mask="url(#mask2_294_103)">
<path d="M48.5714 0H31.4286C30.6396 0 30 0.716344 30 1.6V14.4C30 15.2837 30.6396 16 31.4286 16H48.5714C49.3604 16 50 15.2837 50 14.4V1.6C50 0.716344 49.3604 0 48.5714 0Z" fill="white"/>
<mask id="mask3_294_103" style="mask-type:alpha" maskUnits="userSpaceOnUse" x="30" y="0" width="20" height="16">
<path d="M48.5714 0H31.4286C30.6396 0 30 0.716344 30 1.6V14.4C30 15.2837 30.6396 16 31.4286 16H48.5714C49.3604 16 50 15.2837 50 14.4V1.6C50 0.716344 49.3604 0 48.5714 0Z" fill="white"/>
</mask>
<g mask="url(#mask3_294_103)">
<path fill-rule="evenodd" clip-rule="evenodd" d="M30 5.33334H50V0H30V5.33334Z" fill="#262626"/>
<g filter="url(#filter0_d_294_103)">
<path fill-rule="evenodd" clip-rule="evenodd" d="M30 10.6663H50V5.33301H30V10.6663Z" fill="#F01515"/>
</g>
<g filter="url(#filter1_d_294_103)">
<path fill-rule="evenodd" clip-rule="evenodd" d="M30 16.0004H50V10.667H30V16.0004Z" fill="#FFD521"/>
</g>
</g>
</g>
<mask id="mask4_294_103" style="mask-type:luminance" maskUnits="userSpaceOnUse" x="60" y="0" width="20" height="16">
<path d="M78.5714 0H61.4286C60.6396 0 60 0.716344 60 1.6V14.4C60 15.2837 60.6396 16 61.4286 16H78.5714C79.3604 16 80 15.2837 80 14.4V1.6C80 0.716344 79.3604 0 78.5714 0Z" fill="white"/>
</mask>
<g mask="url(#mask4_294_103)">
<path d="M78.5706 0.200195H61.4277C60.7374 0.200195 60.1777 0.826997 60.1777 1.6002V14.4002C60.1777 15.1734 60.7374 15.8002 61.4277 15.8002H78.5706C79.2609 15.8002 79.8206 15.1734 79.8206 14.4002V1.6002C79.8206 0.826997 79.2609 0.200195 78.5706 0.200195Z" fill="white" stroke="#F5F5F5" stroke-width="14.2857"/>
<mask id="mask5_294_103" style="mask-type:alpha" maskUnits="userSpaceOnUse" x="53" y="-7" width="34" height="30">
<path d="M78.5706 0.200195H61.4277C60.7374 0.200195 60.1777 0.826997 60.1777 1.6002V14.4002C60.1777 15.1734 60.7374 15.8002 61.4277 15.8002H78.5706C79.2609 15.8002 79.8206 15.1734 79.8206 14.4002V1.6002C79.8206 0.826997 79.2609 0.200195 78.5706 0.200195Z" fill="white" stroke="white" stroke-width="14.2857"/>
</mask>
<g mask="url(#mask5_294_103)">
<path fill-rule="evenodd" clip-rule="evenodd" d="M69.9993 11.7333C71.8403 11.7333 73.3327 10.0618 73.3327 7.99993C73.3327 5.93807 71.8403 4.2666 69.9993 4.2666C68.1584 4.2666 66.666 5.93807 66.666 7.99993C66.666 10.0618 68.1584 11.7333 69.9993 11.7333Z" fill="#E01B41"/>
<mask id="mask6_294_103" style="mask-type:alpha" maskUnits="userSpaceOnUse" x="66" y="4" width="8" height="8">
<path fill-rule="evenodd" clip-rule="evenodd" d="M69.9974 11.7333C71.8383 11.7333 73.3307 10.0618 73.3307 7.99993C73.3307 5.93807 71.8383 4.2666 69.9974 4.2666C68.1565 4.2666 66.6641 5.93807 66.6641 7.99993C66.6641 10.0618 68.1565 11.7333 69.9974 11.7333Z" fill="white"/>
</mask>
<g mask="url(#mask6_294_103)">
<path fill-rule="evenodd" clip-rule="evenodd" d="M66.6655 8.53301C67.6179 9.53301 69.0464 10.133 69.9988 8.53301C70.9511 6.93301 72.8559 6.93301 73.3321 8.53301C73.8083 10.133 73.3321 11.733 73.3321 11.733H66.6655C66.6655 11.733 65.7131 7.53301 66.6655 8.53301Z" fill="#0E4B9C"/>
</g>
<path opacity="0.75" fill-rule="evenodd" clip-rule="evenodd" d="M64.408 2.84529C64.4737 2.71774 64.6193 2.67405 64.7332 2.74769L65.1456 3.01435C65.2595 3.08799 65.2985 3.25108 65.2327 3.37862L64.0423 5.68802C63.9765 5.81557 63.8309 5.85927 63.717 5.78563L63.3046 5.51897C63.1908 5.44533 63.1517 5.28224 63.2175 5.1547L64.408 2.84529ZM74.8516 3.01435C74.7378 3.08799 74.6988 3.25108 74.7645 3.37862L75.955 5.68802C76.0207 5.81557 76.1663 5.85927 76.2802 5.78563L76.6926 5.51897C76.8065 5.44533 76.8455 5.28224 76.7798 5.1547L75.5893 2.84529C75.5235 2.71774 75.3779 2.67405 75.264 2.74769L74.8516 3.01435ZM73.6145 3.81435C73.5005 3.88799 73.4615 4.05108 73.5273 4.17862L74.7178 6.48802C74.7835 6.61557 74.9291 6.65927 75.043 6.58563L75.4554 6.31897C75.5693 6.24533 75.6083 6.08224 75.5425 5.9547L74.3521 3.64529C74.2863 3.51774 74.1408 3.47405 74.0268 3.54769L73.6145 3.81435ZM63.2175 10.8453C63.1517 10.7178 63.1908 10.5546 63.3046 10.481L63.717 10.2143C63.8309 10.1407 63.9765 10.1844 64.0423 10.3119L65.2327 12.6214C65.2985 12.7489 65.2595 12.912 65.1456 12.9856L64.7332 13.2523C64.6193 13.3259 64.4737 13.2822 64.408 13.1547L63.2175 10.8453ZM64.5418 9.68104C64.4279 9.75464 64.3889 9.91776 64.4547 10.0453L65.6451 12.3547C65.7109 12.4822 65.8565 12.5259 65.9704 12.4523L66.3828 12.1856C66.4967 12.112 66.5357 11.9489 66.4699 11.8214L65.2795 9.51192C65.2137 9.3844 65.0681 9.34072 64.9542 9.41432L64.5418 9.68104ZM74.7178 9.51192C74.7835 9.3844 74.9291 9.34072 75.043 9.41432L75.4554 9.68104C75.5693 9.75464 75.6083 9.91776 75.5425 10.0453L74.3521 12.3547C74.2863 12.4822 74.1408 12.5259 74.0268 12.4523L73.6145 12.1856C73.5005 12.112 73.4615 11.9489 73.5273 11.8214L74.7178 9.51192ZM76.2802 10.2143C76.1663 10.1407 76.0207 10.1844 75.955 10.3119L74.7645 12.6214C74.6988 12.7489 74.7378 12.912 74.8516 12.9856L75.264 13.2523C75.3779 13.3259 75.5235 13.2822 75.5893 13.1547L76.7798 10.8453C76.8455 10.7178 76.8065 10.5546 76.6926 10.481L76.2802 10.2143ZM65.9704 3.54769C65.8565 3.47405 65.7109 3.51774 65.6451 3.64529L64.4547 5.9547C64.3889 6.08224 64.4279 6.24533 64.5418 6.31897L64.9542 6.58563C65.0681 6.65927 65.2137 6.61557 65.2795 6.48802L66.4699 4.17862C66.5357 4.05108 66.4967 3.88799 66.3828 3.81435L65.9704 3.54769Z" fill="#262626"/>
</g>
</g>
<defs>
<filter id="filter0_d_294_103" x="30" y="5.33301" width="20" height="5.33301" filterUnits="userSpaceOnUse" color-interpolation-filters="sRGB">
<feFlood flood-opacity="0" result="BackgroundImageFix"/>
<feColorMatrix in="SourceAlpha" type="matrix" values="0 0 0 0 0 0 0 0 0 0 0 0 0 0 0 0 0 0 127 0" result="hardAlpha"/>
<feOffset/>
<feColorMatrix type="matrix" values="0 0 0 0 0 0 0 0 0 0 0 0 0 0 0 0 0 0 0.06 0"/>
<feBlend mode="normal" in2="BackgroundImageFix" result="effect1_dropShadow_294_103"/>
<feBlend mode="normal" in="SourceGraphic" in2="effect1_dropShadow_294_103" result="shape"/>
</filter>
<filter id="filter1_d_294_103" x="30" y="10.667" width="20" height="5.33301" filterUnits="userSpaceOnUse" color-interpolation-filters="sRGB">
<feFlood flood-opacity="0" result="BackgroundImageFix"/>
<feColorMatrix in="SourceAlpha" type="matrix" values="0 0 0 0 0 0 0 0 0 0 0 0 0 0 0 0 0 0 127 0" result="hardAlpha"/>
<feOffset/>
<feColorMatrix type="matrix" values="0 0 0 0 0 0 0 0 0 0 0 0 0 0 0 0 0 0 0.06 0"/>
<feBlend mode="normal" in2="BackgroundImageFix" result="effect1_dropShadow_294_103"/>
<feBlend mode="normal" in="SourceGraphic" in2="effect1_dropShadow_294_103" result="shape"/>
</filter>
<linearGradient id="paint0_linear_294_103" x1="5.71484" y1="3.2002" x2="5.71484" y2="12.8002" gradientUnits="userSpaceOnUse">
<stop stop-color="#D81441"/>
<stop offset="1" stop-color="#BB0831"/>
</linearGradient>
</defs>
</svg>
