<svg width="242" height="39" viewBox="0 0 242 39" fill="none" xmlns="http://www.w3.org/2000/svg">
<path d="M38.0899 3H15.9101C7.13713 3 0 10.4018 0 19.5C0 28.5982 7.13713 36 15.9101 36H38.0899C46.8629 36 54 28.5982 54 19.5C54 10.4018 46.8629 3 38.0899 3ZM38.0899 32.9995H15.9101C8.73221 32.9995 2.89327 26.944 2.89327 19.5C2.89327 12.056 8.73221 6.00055 15.9101 6.00055H38.0899C45.2678 6.00055 51.1067 12.056 51.1067 19.5C51.1067 26.944 45.2678 32.9995 38.0899 32.9995ZM21.6966 18.0027H17.3596V13.5049C17.3596 12.6778 16.7135 12.0077 15.9159 12.0077C15.1184 12.0077 14.4722 12.6778 14.4722 13.5049V18.0027H10.1352C9.33765 18.0027 8.69146 18.6729 8.69146 19.5C8.69146 20.3271 9.33765 20.9973 10.1352 20.9973H14.4722V25.4951C14.4722 26.3222 15.1184 26.9923 15.9159 26.9923C16.7135 26.9923 17.3596 26.3222 17.3596 25.4951V20.9973H21.6966C22.4942 20.9973 23.1404 20.3271 23.1404 19.5C23.1462 18.6729 22.4942 18.0027 21.6966 18.0027ZM38.0899 11.9956C37.0246 11.9956 36.163 12.8891 36.163 13.994C36.163 15.0988 37.0246 15.9923 38.0899 15.9923C39.1552 15.9923 40.0168 15.0988 40.0168 13.994C40.0168 12.8952 39.1552 11.9956 38.0899 11.9956ZM38.0899 22.9956C37.0246 22.9956 36.163 23.8891 36.163 24.994C36.163 26.0988 37.0246 26.9923 38.0899 26.9923C39.1552 26.9923 40.0168 26.0988 40.0168 24.994C40.0168 23.8952 39.1552 22.9956 38.0899 22.9956ZM32.7865 17.4956C31.7212 17.4956 30.8596 18.3891 30.8596 19.494C30.8596 20.5988 31.7212 21.4923 32.7865 21.4923C33.8519 21.4923 34.7135 20.5988 34.7135 19.494C34.7135 18.3952 33.8519 17.4956 32.7865 17.4956ZM43.3933 17.4956C42.3279 17.4956 41.4664 18.3891 41.4664 19.494C41.4664 20.5988 42.3279 21.4923 43.3933 21.4923C44.4586 21.4923 45.3202 20.5988 45.3202 19.494C45.3202 18.3952 44.4586 17.4956 43.3933 17.4956Z" fill="white"/>
<path d="M77.472 31.384C75.7013 31.384 74.0693 31.1067 72.576 30.552C71.104 29.976 69.8133 29.1653 68.704 28.12C67.616 27.0747 66.7627 25.848 66.144 24.44C65.5467 23.032 65.248 21.4853 65.248 19.8C65.248 18.1147 65.5467 16.568 66.144 15.16C66.7627 13.752 67.6267 12.5253 68.736 11.48C69.8453 10.4347 71.1467 9.63467 72.64 9.08C74.1333 8.504 75.776 8.216 77.568 8.216C79.552 8.216 81.3333 8.54667 82.912 9.208C84.512 9.86933 85.856 10.8293 86.944 12.088L83.616 15.16C82.8053 14.3067 81.92 13.6773 80.96 13.272C80 12.8453 78.9547 12.632 77.824 12.632C76.736 12.632 75.744 12.8027 74.848 13.144C73.952 13.4853 73.1733 13.976 72.512 14.616C71.872 15.256 71.3707 16.0133 71.008 16.888C70.6667 17.7627 70.496 18.7333 70.496 19.8C70.496 20.8453 70.6667 21.8053 71.008 22.68C71.3707 23.5547 71.872 24.3227 72.512 24.984C73.1733 25.624 73.9413 26.1147 74.816 26.456C75.712 26.7973 76.6933 26.968 77.76 26.968C78.784 26.968 79.776 26.808 80.736 26.488C81.7173 26.1467 82.6667 25.5813 83.584 24.792L86.528 28.536C85.312 29.4533 83.8933 30.1573 82.272 30.648C80.672 31.1387 79.072 31.384 77.472 31.384ZM81.792 27.864V19.448H86.528V28.536L81.792 27.864ZM88.3995 31L98.3835 8.6H103.504L113.52 31H108.08L99.8875 11.224H101.936L93.7115 31H88.3995ZM93.3915 26.2L94.7675 22.264H106.288L107.696 26.2H93.3915ZM115.844 31V8.6H120.132L129.668 24.408H127.396L136.772 8.6H141.028L141.092 31H136.228L136.196 16.056H137.092L129.604 28.632H127.268L119.62 16.056H120.708V31H115.844ZM151.174 17.624H161.958V21.656H151.174V17.624ZM151.558 26.84H163.75V31H146.406V8.6H163.334V12.76H151.558V26.84ZM176.186 8.6H177.626V31H176.186V8.6ZM186.683 31.352C183.515 31.352 181.435 29.432 181.371 26.264H182.747C182.811 28.728 184.251 30.008 186.683 30.008C188.763 30.008 190.235 28.856 190.235 26.936C190.235 22.456 181.563 23.8 181.563 18.2C181.563 15.64 183.547 13.912 186.363 13.912C189.339 13.912 191.259 15.768 191.323 18.648H189.947C189.883 16.472 188.571 15.224 186.363 15.224C184.315 15.224 182.971 16.376 182.971 18.232C182.971 22.552 191.643 21.176 191.643 26.968C191.643 29.592 189.531 31.352 186.683 31.352ZM195.148 31V7.864H196.524V31H195.148ZM205.821 13.912C208.861 13.912 210.685 15.896 210.685 19.192V31H209.469L209.341 29.208C208.605 30.456 207.229 31.352 205.213 31.352C202.269 31.352 200.221 29.496 200.221 26.264C200.221 23.128 202.237 21.336 205.853 21.336H209.309V19.224C209.309 16.664 208.061 15.224 205.789 15.224C203.645 15.224 202.205 16.536 202.141 18.456H200.733C200.893 15.768 202.812 13.912 205.821 13.912ZM205.405 30.008C207.901 30.008 209.309 28.504 209.309 26.136V22.616H205.821C203.069 22.616 201.629 23.928 201.629 26.296C201.629 28.696 203.133 30.008 205.405 30.008ZM221.066 13.912C223.722 13.912 225.418 15.832 225.418 20.184V31H224.042V20.376C224.042 16.888 222.954 15.224 220.746 15.224C218.282 15.224 216.554 17.368 216.554 20.792V31H215.178V14.264H216.362L216.554 16.44V16.728C217.45 15 218.986 13.912 221.066 13.912ZM238.35 7.864H239.694V31H238.542L238.382 29.24C237.518 30.52 236.014 31.352 234.286 31.352C231.374 31.352 229.262 29.208 229.262 25.432V19.736C229.262 16.056 231.182 13.912 234.19 13.912C235.982 13.912 237.55 14.744 238.35 16.376V7.864ZM234.574 30.072C236.654 30.072 238.35 28.44 238.35 25.624V20.12C238.35 17.016 236.686 15.192 234.51 15.192C232.078 15.192 230.638 16.728 230.638 19.736V25.432C230.638 28.504 232.206 30.072 234.574 30.072Z" fill="white"/>
</svg>
