<svg width="50" height="16" viewBox="0 0 50 16" fill="none" xmlns="http://www.w3.org/2000/svg">
<mask id="mask0_294_162" style="mask-type:luminance" maskUnits="userSpaceOnUse" x="0" y="0" width="20" height="16">
<path d="M18.5714 0H1.42857C0.639593 0 0 0.716344 0 1.6V14.4C0 15.2837 0.639593 16 1.42857 16H18.5714C19.3604 16 20 15.2837 20 14.4V1.6C20 0.716344 19.3604 0 18.5714 0Z" fill="white"/>
</mask>
<g mask="url(#mask0_294_162)">
<path d="M18.5714 0H1.42857C0.639593 0 0 0.716344 0 1.6V14.4C0 15.2837 0.639593 16 1.42857 16H18.5714C19.3604 16 20 15.2837 20 14.4V1.6C20 0.716344 19.3604 0 18.5714 0Z" fill="white"/>
<mask id="mask1_294_162" style="mask-type:alpha" maskUnits="userSpaceOnUse" x="0" y="0" width="20" height="16">
<path d="M18.5714 0H1.42857C0.639593 0 0 0.716344 0 1.6V14.4C0 15.2837 0.639593 16 1.42857 16H18.5714C19.3604 16 20 15.2837 20 14.4V1.6C20 0.716344 19.3604 0 18.5714 0Z" fill="white"/>
</mask>
<g mask="url(#mask1_294_162)">
<path fill-rule="evenodd" clip-rule="evenodd" d="M0 5.33334H20V0H0V5.33334Z" fill="#262626"/>
<g filter="url(#filter0_d_294_162)">
<path fill-rule="evenodd" clip-rule="evenodd" d="M0 10.6663H20V5.33301H0V10.6663Z" fill="#F01515"/>
</g>
<g filter="url(#filter1_d_294_162)">
<path fill-rule="evenodd" clip-rule="evenodd" d="M0 16.0004H20V10.667H0V16.0004Z" fill="#FFD521"/>
</g>
</g>
</g>
<mask id="mask2_294_162" style="mask-type:luminance" maskUnits="userSpaceOnUse" x="30" y="0" width="20" height="16">
<path d="M48.5714 0H31.4286C30.6396 0 30 0.716344 30 1.6V14.4C30 15.2837 30.6396 16 31.4286 16H48.5714C49.3604 16 50 15.2837 50 14.4V1.6C50 0.716344 49.3604 0 48.5714 0Z" fill="white"/>
</mask>
<g mask="url(#mask2_294_162)">
<path d="M48.5706 0.200195H31.4277C30.7374 0.200195 30.1777 0.826997 30.1777 1.6002V14.4002C30.1777 15.1734 30.7374 15.8002 31.4277 15.8002H48.5706C49.2609 15.8002 49.8206 15.1734 49.8206 14.4002V1.6002C49.8206 0.826997 49.2609 0.200195 48.5706 0.200195Z" fill="white" stroke="#F5F5F5" stroke-width="14.2857"/>
<mask id="mask3_294_162" style="mask-type:alpha" maskUnits="userSpaceOnUse" x="23" y="-7" width="34" height="30">
<path d="M48.5706 0.200195H31.4277C30.7374 0.200195 30.1777 0.826997 30.1777 1.6002V14.4002C30.1777 15.1734 30.7374 15.8002 31.4277 15.8002H48.5706C49.2609 15.8002 49.8206 15.1734 49.8206 14.4002V1.6002C49.8206 0.826997 49.2609 0.200195 48.5706 0.200195Z" fill="white" stroke="white" stroke-width="14.2857"/>
</mask>
<g mask="url(#mask3_294_162)">
<path d="M49.9987 0H43.332V16H49.9987V0Z" fill="#E43D4C"/>
<path fill-rule="evenodd" clip-rule="evenodd" d="M30 16H36.6667V0H30V16Z" fill="#1BB65D"/>
</g>
</g>
<defs>
<filter id="filter0_d_294_162" x="0" y="5.33301" width="20" height="5.33301" filterUnits="userSpaceOnUse" color-interpolation-filters="sRGB">
<feFlood flood-opacity="0" result="BackgroundImageFix"/>
<feColorMatrix in="SourceAlpha" type="matrix" values="0 0 0 0 0 0 0 0 0 0 0 0 0 0 0 0 0 0 127 0" result="hardAlpha"/>
<feOffset/>
<feColorMatrix type="matrix" values="0 0 0 0 0 0 0 0 0 0 0 0 0 0 0 0 0 0 0.06 0"/>
<feBlend mode="normal" in2="BackgroundImageFix" result="effect1_dropShadow_294_162"/>
<feBlend mode="normal" in="SourceGraphic" in2="effect1_dropShadow_294_162" result="shape"/>
</filter>
<filter id="filter1_d_294_162" x="0" y="10.667" width="20" height="5.33301" filterUnits="userSpaceOnUse" color-interpolation-filters="sRGB">
<feFlood flood-opacity="0" result="BackgroundImageFix"/>
<feColorMatrix in="SourceAlpha" type="matrix" values="0 0 0 0 0 0 0 0 0 0 0 0 0 0 0 0 0 0 127 0" result="hardAlpha"/>
<feOffset/>
<feColorMatrix type="matrix" values="0 0 0 0 0 0 0 0 0 0 0 0 0 0 0 0 0 0 0.06 0"/>
<feBlend mode="normal" in2="BackgroundImageFix" result="effect1_dropShadow_294_162"/>
<feBlend mode="normal" in="SourceGraphic" in2="effect1_dropShadow_294_162" result="shape"/>
</filter>
</defs>
</svg>
